<?xml version="1.0" standalone="no"?>
<!DOCTYPE svg PUBLIC "-//W3C//DTD SVG 20010904//EN"
    "http://www.w3.org/TR/2001/REC-SVG-20010904/DTD/svg10.dtd">
<svg version="1.0" xmlns="http://www.w3.org/2000/svg"
     width="64.000000pt" height="64.000000pt" viewBox="0 0 64.000000 64.000000"
     preserveAspectRatio="xMidYMid meet">
    <metadata>
        Created by potrace 1.10, written by Peter Selinger 2001-2011
    </metadata>
    <g transform="translate(0.000000,64.000000) scale(0.100000,-0.100000)"
       fill="#ffffff" stroke="none">
        <path d="M40 395 c0 -147 -2 -145 180 -145 l140 0 0 75 c0 73 -1 75 -25 75
-23 0 -25 -3 -25 -50 0 -42 -3 -50 -18 -50 -11 0 -29 17 -43 37 -13 21 -36 44
-52 51 -34 16 -27 28 29 52 45 20 50 26 35 48 -6 11 -15 10 -47 -5 -64 -28
-84 -51 -84 -95 0 -35 2 -38 28 -38 26 0 62 -26 62 -44 0 -4 -30 -6 -67 -4
l-68 3 -3 98 c-2 89 -4 97 -22 97 -19 0 -20 -7 -20 -105z"/>
        <path d="M390 375 c0 -118 1 -125 20 -125 17 0 20 7 20 43 0 23 3 79 7 125 l6
82 -27 0 -26 0 0 -125z"/>
        <path d="M540 351 c0 -51 -28 -101 -56 -101 -8 0 -14 -9 -14 -20 0 -14 7 -20
21 -20 55 0 89 51 89 135 0 48 -2 55 -20 55 -17 0 -20 -7 -20 -49z"/>
        <path d="M273 205 c-2 -8 -2 -19 2 -25 8 -14 35 -13 35 1 0 8 5 8 15 -1 19
-16 47 -5 43 17 -4 23 -86 29 -95 8z"/>
    </g>
</svg>
